# xmcd
#
# Track frame offsets:
#	150
#	17724
#	37044
#	50390
#	71653
#	83035
#	95395
#	126894
#	145657
#	162829
#	194172
#	218798
#	233675
#	250733
#	277977
#
# Disc length: 4031 seconds
#
# Revision: 0
# Processed by: cddbd v1.5.1PL0 Copyright (c) Steve Scherf et al.
# Submitted via: MusicWizard 7.2.0
#
DISCID=cf0fbd0f
DTITLE=Various Artist - Blues Express [CD 2/2)
DYEAR=1900
DGENRE=Blues
TTITLE0=Tonky Blues Band - La Coquette Shuffle
TTITLE1=Charlie Musselwhite - My Time Someday
TTITLE2=John Hammond - Don't Start Me Talkin'
TTITLE3=Peter Green - Lies
TTITLE4=Jean Jacques Milteau - Royal Shuffle
TTITLE5=Patrick Verbeke - Maybellene
TTITLE6=John Mayall and The Bluesbreakers - Padlock On The Blues
TTITLE7=Treves Blues Band - She's My Baby
TTITLE8=Jimmie Vaughan - Out Of The Shadows
TTITLE9=Bobby Mack - Pourin' Rain
TTITLE10=Craig Erickson - Businessman
TTITLE11=Jan James - This Ain't No Livin'
TTITLE12=Michael Katon - Detroit River Blues
TTITLE13=Walter Trout Band - Tribute To Muddy Waters
TTITLE14=Jeff Healey Band - Feel Better
EXTD=
EXTT0=
EXTT1=
EXTT2=
EXTT3=
EXTT4=
EXTT5=
EXTT6=
EXTT7=
EXTT8=
EXTT9=
EXTT10=
EXTT11=
EXTT12=
EXTT13=
EXTT14=
PLAYORDER=
